<?xml version="1.0"?>
<svg xmlns="http://www.w3.org/2000/svg" version="1.2" baseProfile="tiny" width="800" height="379" viewBox="0 0 800 379" stroke-linecap="round" stroke-linejoin="round">
<g id="车位" fill="none" stroke="black" stroke-width="1">
<path d="M 510.4 314.8 492.6 314.8 492.6 275.48"/>
<path d="M 359.05 152.32 376.86 152.32 376.86 113 359.05 113 359.05 152.32"/>
<path d="M 341.24 152.32 359.05 152.32 359.05 113 341.24 113 341.24 152.32"/>
<path d="M 323.44 152.32 341.24 152.32 341.24 113 323.44 113 323.44 152.32"/>
<path d="M 305.63 152.32 323.44 152.32 323.44 113 305.63 113 305.63 152.32"/>
<path d="M 287.83 152.32 305.63 152.32 305.63 113 287.83 113 287.83 152.32"/>
<path d="M 270.02 152.32 287.83 152.32 287.83 113 270.02 113 270.02 152.32"/>
<path d="M 359.05 152.32 376.86 152.32 376.86 191.64 359.05 191.64 359.05 152.32"/>
<path d="M 341.24 152.32 359.05 152.32 359.05 191.64 341.24 191.64 341.24 152.32"/>
<path d="M 323.44 152.32 341.24 152.32 341.24 191.64 323.44 191.64 323.44 152.32"/>
<path d="M 305.63 152.32 323.44 152.32 323.44 191.64 305.63 191.64 305.63 152.32"/>
<path d="M 287.83 152.32 305.63 152.32 305.63 191.64 287.83 191.64 287.83 152.32"/>
<path d="M 270.02 152.32 287.83 152.32 287.83 191.64 270.02 191.64 270.02 152.32"/>
<path d="M 741.88 152.32 759.68 152.32 759.68 113 741.88 113 741.88 152.32"/>
<path d="M 724.07 152.32 741.88 152.32 741.88 113 724.07 113 724.07 152.32"/>
<path d="M 706.27 152.32 724.07 152.32 724.07 113 706.27 113 706.27 152.32"/>
<path d="M 688.46 152.32 706.27 152.32 706.27 113 688.46 113 688.46 152.32"/>
<path d="M 670.65 152.32 688.46 152.32 688.46 113 670.65 113 670.65 152.32"/>
<path d="M 652.85 152.32 670.65 152.32 670.65 113 652.85 113 652.85 152.32"/>
<path d="M 635.04 152.32 652.85 152.32 652.85 113 635.04 113 635.04 152.32"/>
<path d="M 617.24 152.32 635.04 152.32 635.04 113 617.24 113 617.24 152.32"/>
<path d="M 599.43 152.32 617.24 152.32 617.24 113 599.43 113 599.43 152.32"/>
<path d="M 581.63 152.32 599.43 152.32 599.43 113 581.63 113 581.63 152.32"/>
<path d="M 563.82 152.32 581.63 152.32 581.63 113 563.82 113 563.82 152.32"/>
<path d="M 546.01 152.32 563.82 152.32 563.82 113 546.01 113 546.01 152.32"/>
<path d="M 528.21 152.32 546.01 152.32 546.01 113 528.21 113 528.21 152.32"/>
<path d="M 510.4 152.32 528.21 152.32 528.21 113 510.4 113 510.4 152.32"/>
<path d="M 492.6 152.32 510.4 152.32 510.4 113 492.6 113 492.6 152.32"/>
<path d="M 759.68 191.64 741.88 191.64 741.88 152.32 759.68 152.32 759.68 191.64"/>
<path d="M 724.07 152.32 741.88 152.32 741.88 191.64 724.07 191.64 724.07 152.32"/>
<path d="M 706.27 152.32 724.07 152.32 724.07 191.64 706.27 191.64 706.27 152.32"/>
<path d="M 688.46 152.32 706.27 152.32 706.27 191.64 688.46 191.64 688.46 152.32"/>
<path d="M 670.65 152.32 688.46 152.32 688.46 191.64 670.65 191.64 670.65 152.32"/>
<path d="M 652.85 152.32 670.65 152.32 670.65 191.64 652.85 191.64 652.85 152.32"/>
<path d="M 635.04 152.32 652.85 152.32 652.85 191.64 635.04 191.64 635.04 152.32"/>
<path d="M 617.24 152.32 635.04 152.32 635.04 191.64 617.24 191.64 617.24 152.32"/>
<path d="M 599.43 152.32 617.24 152.32 617.24 191.64 599.43 191.64 599.43 152.32"/>
<path d="M 581.63 152.32 599.43 152.32 599.43 191.64 581.63 191.64 581.63 152.32"/>
<path d="M 563.82 152.32 581.63 152.32 581.63 191.64 563.82 191.64 563.82 152.32"/>
<path d="M 546.01 152.32 563.82 152.32 563.82 191.64 546.01 191.64 546.01 152.32"/>
<path d="M 528.21 152.32 546.01 152.32 546.01 191.64 528.21 191.64 528.21 152.32"/>
<path d="M 510.4 152.32 528.21 152.32 528.21 191.64 510.4 191.64 510.4 152.32"/>
<path d="M 492.6 152.32 510.4 152.32 510.4 191.64 492.6 191.64 492.6 152.32"/>
<path d="M 759.68 191.64 759.68 152.32 777.49 152.32 777.49 191.64 759.68 191.64"/>
<path d="M 759.68 236.15 741.88 236.15 741.88 275.48 759.68 275.48 759.68 236.15"/>
<path d="M 724.07 275.48 741.88 275.48 741.88 236.15 724.07 236.15 724.07 275.48"/>
<path d="M 706.27 275.48 724.07 275.48 724.07 236.15 706.27 236.15 706.27 275.48"/>
<path d="M 688.46 275.48 706.27 275.48 706.27 236.15 688.46 236.15 688.46 275.48"/>
<path d="M 670.65 275.48 688.46 275.48 688.46 236.15 670.65 236.15 670.65 275.48"/>
<path d="M 652.85 275.48 670.65 275.48 670.65 236.15 652.85 236.15 652.85 275.48"/>
<path d="M 635.04 275.48 652.85 275.48 652.85 236.15 635.04 236.15 635.04 275.48"/>
<path d="M 617.24 275.48 635.04 275.48 635.04 236.15 617.24 236.15 617.24 275.48"/>
<path d="M 599.43 275.48 617.24 275.48 617.24 236.15 599.43 236.15 599.43 275.48"/>
<path d="M 581.63 275.48 599.43 275.48 599.43 236.15 581.63 236.15 581.63 275.48"/>
<path d="M 563.82 275.48 581.63 275.48 581.63 236.15 563.82 236.15 563.82 275.48"/>
<path d="M 546.01 275.48 563.82 275.48 563.82 236.15 546.01 236.15 546.01 275.48"/>
<path d="M 528.21 275.48 546.01 275.48 546.01 236.15 528.21 236.15 528.21 275.48"/>
<path d="M 510.4 275.48 528.21 275.48 528.21 236.15 510.4 236.15 510.4 275.48"/>
<path d="M 492.6 275.48 510.4 275.48 510.4 236.15 492.6 236.15 492.6 275.48"/>
<path d="M 492.6 236.15 474.79 236.15 474.79 275.48 492.6 275.48 492.6 236.15"/>
<path d="M 759.68 314.8 741.88 314.8 741.88 275.48 759.68 275.48 759.68 314.8"/>
<path d="M 724.07 275.48 741.88 275.48 741.88 314.8 724.07 314.8 724.07 275.48"/>
<path d="M 706.27 275.48 724.07 275.48 724.07 314.8 706.27 314.8 706.27 275.48"/>
<path d="M 688.46 275.48 706.27 275.48 706.27 314.8 688.46 314.8 688.46 275.48"/>
<path d="M 670.65 275.48 688.46 275.48 688.46 314.8 670.65 314.8 670.65 275.48"/>
<path d="M 652.85 275.48 670.65 275.48 670.65 314.8 652.85 314.8 652.85 275.48"/>
<path d="M 635.04 275.48 652.85 275.48 652.85 314.8 635.04 314.8 635.04 275.48"/>
<path d="M 617.24 275.48 635.04 275.48 635.04 314.8 617.24 314.8 617.24 275.48"/>
<path d="M 599.43 275.48 617.24 275.48 617.24 314.8 599.43 314.8 599.43 275.48"/>
<path d="M 581.63 275.48 599.43 275.48 599.43 314.8 581.63 314.8 581.63 275.48"/>
<path d="M 563.82 275.48 581.63 275.48 581.63 314.8 563.82 314.8 563.82 275.48"/>
<path d="M 546.01 275.48 563.82 275.48 563.82 314.8 546.01 314.8 546.01 275.48"/>
<path d="M 528.21 275.48 546.01 275.48 546.01 314.8 528.21 314.8 528.21 275.48"/>
<path d="M 510.4 275.48 528.21 275.48 528.21 314.8 510.4 314.8 510.4 275.48"/>
<path d="M 510.4 314.8 492.6 314.8 492.6 275.48 510.4 275.48 510.4 314.8"/>
<path d="M 759.68 314.8 759.68 275.48 777.49 275.48 777.49 314.8 759.68 314.8"/>
<path d="M 492.6 314.8 474.79 314.8 474.79 275.48 492.6 275.48 492.6 314.8"/>
<path d="M 777.49 275.48 795.29 275.48 795.29 236.15 777.49 236.15 777.49 275.48"/>
<path d="M 759.68 236.15 759.68 275.48 777.49 275.48 777.49 236.15 759.68 236.15"/>
<path d="M 777.49 275.48 795.29 275.48 795.29 314.8 777.49 314.8 777.49 275.48"/>
<path d="M 341.24 236.15 323.44 236.15 323.44 275.48 341.24 275.48 341.24 236.15"/>
<path d="M 305.63 275.48 323.44 275.48 323.44 236.15 305.63 236.15 305.63 275.48"/>
<path d="M 287.83 275.48 305.63 275.48 305.63 236.15 287.83 236.15 287.83 275.48"/>
<path d="M 270.02 275.48 287.83 275.48 287.83 236.15 270.02 236.15 270.02 275.48"/>
<path d="M 252.22 275.48 270.02 275.48 270.02 236.15 252.22 236.15 252.22 275.48"/>
<path d="M 234.41 275.48 252.22 275.48 252.22 236.15 234.41 236.15 234.41 275.48"/>
<path d="M 216.61 275.48 234.41 275.48 234.41 236.15 216.61 236.15 216.61 275.48"/>
<path d="M 198.8 275.48 216.61 275.48 216.61 236.15 198.8 236.15 198.8 275.48"/>
<path d="M 180.99 275.48 198.8 275.48 198.8 236.15 180.99 236.15 180.99 275.48"/>
<path d="M 163.19 275.48 180.99 275.48 180.99 236.15 163.19 236.15 163.19 275.48"/>
<path d="M 145.38 275.48 163.19 275.48 163.19 236.15 145.38 236.15 145.38 275.48"/>
<path d="M 127.58 275.48 145.38 275.48 145.38 236.15 127.58 236.15 127.58 275.48"/>
<path d="M 109.77 275.48 127.58 275.48 127.58 236.15 109.77 236.15 109.77 275.48"/>
<path d="M 91.97 275.48 109.77 275.48 109.77 236.15 91.97 236.15 91.97 275.48"/>
<path d="M 341.24 314.8 323.44 314.8 323.44 275.48 341.24 275.48 341.24 314.8"/>
<path d="M 305.63 275.48 323.44 275.48 323.44 314.8 305.63 314.8 305.63 275.48"/>
<path d="M 287.83 275.48 305.63 275.48 305.63 314.8 287.83 314.8 287.83 275.48"/>
<path d="M 270.02 275.48 287.83 275.48 287.83 314.8 270.02 314.8 270.02 275.48"/>
<path d="M 252.22 275.48 270.02 275.48 270.02 314.8 252.22 314.8 252.22 275.48"/>
<path d="M 234.41 275.48 252.22 275.48 252.22 314.8 234.41 314.8 234.41 275.48"/>
<path d="M 216.61 275.48 234.41 275.48 234.41 314.8 216.61 314.8 216.61 275.48"/>
<path d="M 198.8 275.48 216.61 275.48 216.61 314.8 198.8 314.8 198.8 275.48"/>
<path d="M 180.99 275.48 198.8 275.48 198.8 314.8 180.99 314.8 180.99 275.48"/>
<path d="M 163.19 275.48 180.99 275.48 180.99 314.8 163.19 314.8 163.19 275.48"/>
<path d="M 145.38 275.48 163.19 275.48 163.19 314.8 145.38 314.8 145.38 275.48"/>
<path d="M 127.58 275.48 145.38 275.48 145.38 314.8 127.58 314.8 127.58 275.48"/>
<path d="M 109.77 275.48 127.58 275.48 127.58 314.8 109.77 314.8 109.77 275.48"/>
<path d="M 91.97 275.48 109.77 275.48 109.77 314.8 91.97 314.8 91.97 275.48"/>
<path d="M 341.24 314.8 341.24 275.48 359.05 275.48 359.05 314.8 341.24 314.8"/>
<path d="M 376.86 275.48 394.66 275.48 394.66 236.15 376.86 236.15 376.86 275.48"/>
<path d="M 359.05 275.48 376.86 275.48 376.86 236.15 359.05 236.15 359.05 275.48"/>
<path d="M 341.24 236.15 341.24 275.48 359.05 275.48 359.05 236.15 341.24 236.15"/>
<path d="M 376.86 275.48 394.66 275.48 394.66 314.8 376.86 314.8 376.86 275.48"/>
<path d="M 359.05 275.48 376.86 275.48 376.86 314.8 359.05 314.8 359.05 275.48"/>
<path d="M 40.32 142.67 40.32 224.28 14.35 224.28 14.35 142.67 40.32 142.67"/>
<path d="M 40.32 314.8 40.32 233.19 14.35 233.19 14.35 314.8 40.32 314.8"/>
<path d="M 40.32 115.97 1 115.97 1 133.77 40.32 133.77 40.32 115.97"/>
<path d="M 40.32 115.97 40.32 98.16 1 98.16 1 115.97 40.32 115.97"/>
<path d="M 264.09 143.05 268.54 143.05 268.54 128.21 264.09 128.21 264.09 143.05"/>
<path d="M 255.18 143.05 259.64 143.05 259.64 128.21 255.18 128.21 255.18 143.05"/>
<path d="M 250.73 143.05 255.18 143.05 255.18 128.21 250.73 128.21 250.73 143.05"/>
<path d="M 246.28 143.05 250.73 143.05 250.73 128.21 246.28 128.21 246.28 143.05"/>
<path d="M 241.83 143.05 246.28 143.05 246.28 128.21 241.83 128.21 241.83 143.05"/>
<path d="M 237.38 143.05 241.83 143.05 241.83 128.21 237.38 128.21 237.38 143.05"/>
<path d="M 232.93 143.05 237.38 143.05 237.38 128.21 232.93 128.21 232.93 143.05"/>
<path d="M 228.48 143.05 232.93 143.05 232.93 128.21 228.48 128.21 228.48 143.05"/>
<path d="M 224.02 143.05 228.48 143.05 228.48 128.21 224.02 128.21 224.02 143.05"/>
<path d="M 219.57 143.05 224.02 143.05 224.02 128.21 219.57 128.21 219.57 143.05"/>
<path d="M 215.12 143.05 219.57 143.05 219.57 128.21 215.12 128.21 215.12 143.05"/>
<path d="M 210.67 143.05 215.12 143.05 215.12 128.21 210.67 128.21 210.67 143.05"/>
<path d="M 206.22 143.05 210.67 143.05 210.67 128.21 206.22 128.21 206.22 143.05"/>
<path d="M 201.77 143.05 206.22 143.05 206.22 128.21 201.77 128.21 201.77 143.05"/>
<path d="M 197.32 143.05 201.77 143.05 201.77 128.21 197.32 128.21 197.32 143.05"/>
<path d="M 192.86 143.05 197.32 143.05 197.32 128.21 192.86 128.21 192.86 143.05"/>
<path d="M 188.41 143.05 192.86 143.05 192.86 128.21 188.41 128.21 188.41 143.05"/>
<path d="M 183.96 143.05 188.41 143.05 188.41 128.21 183.96 128.21 183.96 143.05"/>
<path d="M 179.51 143.05 183.96 143.05 183.96 128.21 179.51 128.21 179.51 143.05"/>
<path d="M 175.06 143.05 179.51 143.05 179.51 128.21 175.06 128.21 175.06 143.05"/>
<path d="M 170.61 143.05 175.06 143.05 175.06 128.21 170.61 128.21 170.61 143.05"/>
<path d="M 166.16 143.05 170.61 143.05 170.61 128.21 166.16 128.21 166.16 143.05"/>
<path d="M 161.7 143.05 166.16 143.05 166.16 128.21 161.7 128.21 161.7 143.05"/>
<path d="M 157.25 143.05 161.7 143.05 161.7 128.21 157.25 128.21 157.25 143.05"/>
<path d="M 152.8 143.05 157.25 143.05 157.25 128.21 152.8 128.21 152.8 143.05"/>
<path d="M 148.35 143.05 152.8 143.05 152.8 128.21 148.35 128.21 148.35 143.05"/>
<path d="M 143.9 143.05 148.35 143.05 148.35 128.21 143.9 128.21 143.9 143.05"/>
<path d="M 139.45 143.05 143.9 143.05 143.9 128.21 139.45 128.21 139.45 143.05"/>
<path d="M 135 143.05 139.45 143.05 139.45 128.21 135 128.21 135 143.05"/>
<path d="M 130.54 143.05 135 143.05 135 128.21 130.54 128.21 130.54 143.05"/>
<path d="M 126.09 143.05 130.54 143.05 130.54 128.21 126.09 128.21 126.09 143.05"/>
<path d="M 121.64 143.05 126.09 143.05 126.09 128.21 121.64 128.21 121.64 143.05"/>
<path d="M 117.19 143.05 121.64 143.05 121.64 128.21 117.19 128.21 117.19 143.05"/>
<path d="M 112.74 143.05 117.19 143.05 117.19 128.21 112.74 128.21 112.74 143.05"/>
<path d="M 108.29 143.05 112.74 143.05 112.74 128.21 108.29 128.21 108.29 143.05"/>
<path d="M 103.84 143.05 108.29 143.05 108.29 128.21 103.84 128.21 103.84 143.05"/>
<path d="M 99.38 143.05 103.84 143.05 103.84 128.21 99.38 128.21 99.38 143.05"/>
<path d="M 99.38 143.05 99.38 128.21 94.93 128.21 94.93 143.05 99.38 143.05"/>
<path d="M 264.09 113.37 268.54 113.37 268.54 128.21 264.09 128.21 264.09 113.37"/>
<path d="M 255.18 113.37 259.64 113.37 259.64 128.21 255.18 128.21 255.18 113.37"/>
<path d="M 250.73 113.37 255.18 113.37 255.18 128.21 250.73 128.21 250.73 113.37"/>
<path d="M 246.28 113.37 250.73 113.37 250.73 128.21 246.28 128.21 246.28 113.37"/>
<path d="M 241.83 113.37 246.28 113.37 246.28 128.21 241.83 128.21 241.83 113.37"/>
<path d="M 237.38 113.37 241.83 113.37 241.83 128.21 237.38 128.21 237.38 113.37"/>
<path d="M 232.93 113.37 237.38 113.37 237.38 128.21 232.93 128.21 232.93 113.37"/>
<path d="M 228.48 113.37 232.93 113.37 232.93 128.21 228.48 128.21 228.48 113.37"/>
<path d="M 224.02 113.37 228.48 113.37 228.48 128.21 224.02 128.21 224.02 113.37"/>
<path d="M 219.57 113.37 224.02 113.37 224.02 128.21 219.57 128.21 219.57 113.37"/>
<path d="M 215.12 113.37 219.57 113.37 219.57 128.21 215.12 128.21 215.12 113.37"/>
<path d="M 210.67 113.37 215.12 113.37 215.12 128.21 210.67 128.21 210.67 113.37"/>
<path d="M 206.22 113.37 210.67 113.37 210.67 128.21 206.22 128.21 206.22 113.37"/>
<path d="M 201.77 113.37 206.22 113.37 206.22 128.21 201.77 128.21 201.77 113.37"/>
<path d="M 197.32 113.37 201.77 113.37 201.77 128.21 197.32 128.21 197.32 113.37"/>
<path d="M 192.86 113.37 197.32 113.37 197.32 128.21 192.86 128.21 192.86 113.37"/>
<path d="M 188.41 113.37 192.86 113.37 192.86 128.21 188.41 128.21 188.41 113.37"/>
<path d="M 183.96 113.37 188.41 113.37 188.41 128.21 183.96 128.21 183.96 113.37"/>
<path d="M 179.51 113.37 183.96 113.37 183.96 128.21 179.51 128.21 179.51 113.37"/>
<path d="M 175.06 113.37 179.51 113.37 179.51 128.21 175.06 128.21 175.06 113.37"/>
<path d="M 170.61 113.37 175.06 113.37 175.06 128.21 170.61 128.21 170.61 113.37"/>
<path d="M 166.16 113.37 170.61 113.37 170.61 128.21 166.16 128.21 166.16 113.37"/>
<path d="M 161.7 113.37 166.16 113.37 166.16 128.21 161.7 128.21 161.7 113.37"/>
<path d="M 157.25 113.37 161.7 113.37 161.7 128.21 157.25 128.21 157.25 113.37"/>
<path d="M 152.8 113.37 157.25 113.37 157.25 128.21 152.8 128.21 152.8 113.37"/>
<path d="M 148.35 113.37 152.8 113.37 152.8 128.21 148.35 128.21 148.35 113.37"/>
<path d="M 143.9 113.37 148.35 113.37 148.35 128.21 143.9 128.21 143.9 113.37"/>
<path d="M 139.45 113.37 143.9 113.37 143.9 128.21 139.45 128.21 139.45 113.37"/>
<path d="M 135 113.37 139.45 113.37 139.45 128.21 135 128.21 135 113.37"/>
<path d="M 130.54 113.37 135 113.37 135 128.21 130.54 128.21 130.54 113.37"/>
<path d="M 126.09 113.37 130.54 113.37 130.54 128.21 126.09 128.21 126.09 113.37"/>
<path d="M 121.64 113.37 126.09 113.37 126.09 128.21 121.64 128.21 121.64 113.37"/>
<path d="M 117.19 113.37 121.64 113.37 121.64 128.21 117.19 128.21 117.19 113.37"/>
<path d="M 112.74 113.37 117.19 113.37 117.19 128.21 112.74 128.21 112.74 113.37"/>
<path d="M 108.29 113.37 112.74 113.37 112.74 128.21 108.29 128.21 108.29 113.37"/>
<path d="M 103.84 113.37 108.29 113.37 108.29 128.21 103.84 128.21 103.84 113.37"/>
<path d="M 99.38 113.37 103.84 113.37 103.84 128.21 99.38 128.21 99.38 113.37"/>
<path d="M 99.38 113.37 99.38 128.21 94.93 128.21 94.93 113.37 99.38 113.37"/>
<path d="M 264.09 191.27 268.54 191.27 268.54 176.43 264.09 176.43 264.09 191.27"/>
<path d="M 255.18 191.27 259.64 191.27 259.64 176.43 255.18 176.43 255.18 191.27"/>
<path d="M 250.73 191.27 255.18 191.27 255.18 176.43 250.73 176.43 250.73 191.27"/>
<path d="M 246.28 191.27 250.73 191.27 250.73 176.43 246.28 176.43 246.28 191.27"/>
<path d="M 241.83 191.27 246.28 191.27 246.28 176.43 241.83 176.43 241.83 191.27"/>
<path d="M 237.38 191.27 241.83 191.27 241.83 176.43 237.38 176.43 237.38 191.27"/>
<path d="M 232.93 191.27 237.38 191.27 237.38 176.43 232.93 176.43 232.93 191.27"/>
<path d="M 228.48 191.27 232.93 191.27 232.93 176.43 228.48 176.43 228.48 191.27"/>
<path d="M 224.02 191.27 228.48 191.27 228.48 176.43 224.02 176.43 224.02 191.27"/>
<path d="M 219.57 191.27 224.02 191.27 224.02 176.43 219.57 176.43 219.57 191.27"/>
<path d="M 215.12 191.27 219.57 191.27 219.57 176.43 215.12 176.43 215.12 191.27"/>
<path d="M 210.67 191.27 215.12 191.27 215.12 176.43 210.67 176.43 210.67 191.27"/>
<path d="M 206.22 191.27 210.67 191.27 210.67 176.43 206.22 176.43 206.22 191.27"/>
<path d="M 201.77 191.27 206.22 191.27 206.22 176.43 201.77 176.43 201.77 191.27"/>
<path d="M 197.32 191.27 201.77 191.27 201.77 176.43 197.32 176.43 197.32 191.27"/>
<path d="M 192.86 191.27 197.32 191.27 197.32 176.43 192.86 176.43 192.86 191.27"/>
<path d="M 188.41 191.27 192.86 191.27 192.86 176.43 188.41 176.43 188.41 191.27"/>
<path d="M 183.96 191.27 188.41 191.27 188.41 176.43 183.96 176.43 183.96 191.27"/>
<path d="M 179.51 191.27 183.96 191.27 183.96 176.43 179.51 176.43 179.51 191.27"/>
<path d="M 175.06 191.27 179.51 191.27 179.51 176.43 175.06 176.43 175.06 191.27"/>
<path d="M 170.61 191.27 175.06 191.27 175.06 176.43 170.61 176.43 170.61 191.27"/>
<path d="M 166.16 191.27 170.61 191.27 170.61 176.43 166.16 176.43 166.16 191.27"/>
<path d="M 161.7 191.27 166.16 191.27 166.16 176.43 161.7 176.43 161.7 191.27"/>
<path d="M 157.25 191.27 161.7 191.27 161.7 176.43 157.25 176.43 157.25 191.27"/>
<path d="M 152.8 191.27 157.25 191.27 157.25 176.43 152.8 176.43 152.8 191.27"/>
<path d="M 148.35 191.27 152.8 191.27 152.8 176.43 148.35 176.43 148.35 191.27"/>
<path d="M 143.9 191.27 148.35 191.27 148.35 176.43 143.9 176.43 143.9 191.27"/>
<path d="M 139.45 191.27 143.9 191.27 143.9 176.43 139.45 176.43 139.45 191.27"/>
<path d="M 135 191.27 139.45 191.27 139.45 176.43 135 176.43 135 191.27"/>
<path d="M 130.54 191.27 135 191.27 135 176.43 130.54 176.43 130.54 191.27"/>
<path d="M 126.09 191.27 130.54 191.27 130.54 176.43 126.09 176.43 126.09 191.27"/>
<path d="M 121.64 191.27 126.09 191.27 126.09 176.43 121.64 176.43 121.64 191.27"/>
<path d="M 117.19 191.27 121.64 191.27 121.64 176.43 117.19 176.43 117.19 191.27"/>
<path d="M 112.74 191.27 117.19 191.27 117.19 176.43 112.74 176.43 112.74 191.27"/>
<path d="M 108.29 191.27 112.74 191.27 112.74 176.43 108.29 176.43 108.29 191.27"/>
<path d="M 103.84 191.27 108.29 191.27 108.29 176.43 103.84 176.43 103.84 191.27"/>
<path d="M 99.38 191.27 103.84 191.27 103.84 176.43 99.38 176.43 99.38 191.27"/>
<path d="M 99.38 191.27 99.38 176.43 94.93 176.43 94.93 191.27 99.38 191.27"/>
<path d="M 264.09 161.59 268.54 161.59 268.54 176.43 264.09 176.43 264.09 161.59"/>
<path d="M 255.18 161.59 259.64 161.59 259.64 176.43 255.18 176.43 255.18 161.59"/>
<path d="M 250.73 161.59 255.18 161.59 255.18 176.43 250.73 176.43 250.73 161.59"/>
<path d="M 246.28 161.59 250.73 161.59 250.73 176.43 246.28 176.43 246.28 161.59"/>
<path d="M 241.83 161.59 246.28 161.59 246.28 176.43 241.83 176.43 241.83 161.59"/>
<path d="M 237.38 161.59 241.83 161.59 241.83 176.43 237.38 176.43 237.38 161.59"/>
<path d="M 232.93 161.59 237.38 161.59 237.38 176.43 232.93 176.43 232.93 161.59"/>
<path d="M 228.48 161.59 232.93 161.59 232.93 176.43 228.48 176.43 228.48 161.59"/>
<path d="M 224.02 161.59 228.48 161.59 228.48 176.43 224.02 176.43 224.02 161.59"/>
<path d="M 219.57 161.59 224.02 161.59 224.02 176.43 219.57 176.43 219.57 161.59"/>
<path d="M 215.12 161.59 219.57 161.59 219.57 176.43 215.12 176.43 215.12 161.59"/>
<path d="M 210.67 161.59 215.12 161.59 215.12 176.43 210.67 176.43 210.67 161.59"/>
<path d="M 206.22 161.59 210.67 161.59 210.67 176.43 206.22 176.43 206.22 161.59"/>
<path d="M 201.77 161.59 206.22 161.59 206.22 176.43 201.77 176.43 201.77 161.59"/>
<path d="M 197.32 161.59 201.77 161.59 201.77 176.43 197.32 176.43 197.32 161.59"/>
<path d="M 192.86 161.59 197.32 161.59 197.32 176.43 192.86 176.43 192.86 161.59"/>
<path d="M 188.41 161.59 192.86 161.59 192.86 176.43 188.41 176.43 188.41 161.59"/>
<path d="M 183.96 161.59 188.41 161.59 188.41 176.43 183.96 176.43 183.96 161.59"/>
<path d="M 179.51 161.59 183.96 161.59 183.96 176.43 179.51 176.43 179.51 161.59"/>
<path d="M 175.06 161.59 179.51 161.59 179.51 176.43 175.06 176.43 175.06 161.59"/>
<path d="M 170.61 161.59 175.06 161.59 175.06 176.43 170.61 176.43 170.61 161.59"/>
<path d="M 166.16 161.59 170.61 161.59 170.61 176.43 166.16 176.43 166.16 161.59"/>
<path d="M 161.7 161.59 166.16 161.59 166.16 176.43 161.7 176.43 161.7 161.59"/>
<path d="M 157.25 161.59 161.7 161.59 161.7 176.43 157.25 176.43 157.25 161.59"/>
<path d="M 152.8 161.59 157.25 161.59 157.25 176.43 152.8 176.43 152.8 161.59"/>
<path d="M 148.35 161.59 152.8 161.59 152.8 176.43 148.35 176.43 148.35 161.59"/>
<path d="M 143.9 161.59 148.35 161.59 148.35 176.43 143.9 176.43 143.9 161.59"/>
<path d="M 139.45 161.59 143.9 161.59 143.9 176.43 139.45 176.43 139.45 161.59"/>
<path d="M 135 161.59 139.45 161.59 139.45 176.43 135 176.43 135 161.59"/>
<path d="M 130.54 161.59 135 161.59 135 176.43 130.54 176.43 130.54 161.59"/>
<path d="M 126.09 161.59 130.54 161.59 130.54 176.43 126.09 176.43 126.09 161.59"/>
<path d="M 121.64 161.59 126.09 161.59 126.09 176.43 121.64 176.43 121.64 161.59"/>
<path d="M 117.19 161.59 121.64 161.59 121.64 176.43 117.19 176.43 117.19 161.59"/>
<path d="M 112.74 161.59 117.19 161.59 117.19 176.43 112.74 176.43 112.74 161.59"/>
<path d="M 108.29 161.59 112.74 161.59 112.74 176.43 108.29 176.43 108.29 161.59"/>
<path d="M 103.84 161.59 108.29 161.59 108.29 176.43 103.84 176.43 103.84 161.59"/>
<path d="M 99.38 161.59 103.84 161.59 103.84 176.43 99.38 176.43 99.38 161.59"/>
<path d="M 99.38 161.59 99.38 176.43 94.93 176.43 94.93 161.59 99.38 161.59"/>
<path d="M 259.64 143.05 264.09 143.05 264.09 128.21 259.64 128.21 259.64 143.05"/>
<path d="M 259.64 113.37 264.09 113.37 264.09 128.21 259.64 128.21 259.64 113.37"/>
<path d="M 259.64 191.27 264.09 191.27 264.09 176.43 259.64 176.43 259.64 191.27"/>
<path d="M 259.64 161.59 264.09 161.59 264.09 176.43 259.64 176.43 259.64 161.59"/>
<path d="M 155.03 9.16 180.99 9.16 180.99 68.48 155.03 68.48 155.03 9.16"/>
<path d="M 91.97 378.38 91.97 360.57 131.29 360.57 131.29 378.38 91.97 378.38"/>
<path d="M 136.48 378.38 136.48 360.57 175.8 360.57 175.8 378.38 136.48 378.38"/>
<path d="M 180.99 378.38 180.99 360.57 220.31 360.57 220.31 378.38 180.99 378.38"/>
<path d="M 225.51 378.38 225.51 360.57 264.83 360.57 264.83 378.38 225.51 378.38"/>
<path d="M 270.02 378.38 270.02 360.57 309.34 360.57 309.34 378.38 270.02 378.38"/>
<path d="M 314.54 378.38 314.54 360.57 353.86 360.57 353.86 378.38 314.54 378.38"/>
<path d="M 359.05 378.38 359.05 360.57 398.37 360.57 398.37 378.38 359.05 378.38"/>
<path d="M 403.56 378.38 403.56 360.57 442.89 360.57 442.89 378.38 403.56 378.38"/>
<path d="M 448.08 378.38 448.08 360.57 487.4 360.57 487.4 378.38 448.08 378.38"/>
<path d="M 492.59 378.38 492.59 360.57 531.91 360.57 531.91 378.38 492.59 378.38"/>
<path d="M 537.11 378.38 537.11 360.57 576.43 360.57 576.43 378.38 537.11 378.38"/>
<path d="M 581.62 378.38 581.62 360.57 620.94 360.57 620.94 378.38 581.62 378.38"/>
<path d="M 626.14 378.38 626.14 360.57 665.46 360.57 665.46 378.38 626.14 378.38"/>
<path d="M 670.65 378.38 670.65 360.57 709.97 360.57 709.97 378.38 670.65 378.38"/>
<path d="M 715.16 378.38 715.16 360.57 754.49 360.57 754.49 378.38 715.16 378.38"/>
<path d="M 759.68 378.38 759.68 360.57 799 360.57 799 378.38 759.68 378.38"/>
<path d="M 282.65 1 282.65 19.18 180.99 19.18"/>
</g>
</svg>